# xmcd CD database file
# Copyright (C) 1995 Ti Kan
#
# Track frame offsets:
#	150
#	21002
#	42929
#	65575
#	81006
#	99145
#	119948
#	139976
#	161270
#	186337
#	209100
#	234711
#	252572
#	277064
#
# Disc length: 4007 seconds
#
# Revision: 1
# Processed by: cddbd v1.4b41PL1 Copyright (c) Steve Scherf et al.
# Submitted via: NotifyCDPlayer(CDDB) 1.05
#
DISCID=d50fa50e
DTITLE=Trudy Lynn - First Lady Of Soul
DYEAR=1900
DGENRE=
TTITLE0=Wang Dang Doodle
TTITLE1=Try To Leave Me If You Can
TTITLE2=Trudy Sings The Blues
TTITLE3=24 Hour Woman
TTITLE4=Instant Breakfast
TTITLE5=Speak Now, Baby
TTITLE6=Loose Lips
TTITLE7=Rock Me Baby
TTITLE8=In My Arms
TTITLE9=Come To Mama
TTITLE10=Just A Little Bit
TTITLE11=I'll Run Your Hurt Away
TTITLE12=The Woman In Me
TTITLE13=When Something Is Wrong With My Baby
EXTD=
EXTT0=
EXTT1=
EXTT2=
EXTT3=
EXTT4=
EXTT5=
EXTT6=
EXTT7=
EXTT8=
EXTT9=
EXTT10=
EXTT11=
EXTT12=
EXTT13=
PLAYORDER=
